<svg fill="#ffffff" height="200px" width="200px" version="1.1" id="Layer_1" xmlns="http://www.w3.org/2000/svg" xmlns:xlink="http://www.w3.org/1999/xlink" viewBox="0 0 511.999 511.999" xml:space="preserve" stroke="#ffffff"><g id="SVGRepo_bgCarrier" stroke-width="0"></g><g id="SVGRepo_tracerCarrier" stroke-linecap="round" stroke-linejoin="round"></g><g id="SVGRepo_iconCarrier"> <g> <g> <path d="M437.52,245.186L150.305,3.887c-4.302-3.613-10.031-4.407-15.125-2.035c-5.091,2.373-8.073,7.481-8.073,13.098v482.598 c0,5.617,2.981,10.725,8.073,13.098c1.949,0.907,3.894,1.353,5.964,1.353c3.338,0,6.573-1.156,9.229-3.386l287.18-241.299 c3.269-2.746,5.139-6.796,5.139-11.065C442.692,251.981,440.789,247.933,437.52,245.186z M156.009,466.538V45.965l250.3,210.285 L156.009,466.538z"></path> </g> </g> <g> <g> <path d="M83.757,0c-7.981,0-14.45,6.469-14.45,14.45v482.644c0,7.981,6.469,14.45,14.45,14.45s14.45-6.469,14.45-14.45V14.45 C98.207,6.469,91.738,0,83.757,0z"></path> </g> </g> </g></svg>